<?xml version="1.0" standalone="no"?><!DOCTYPE svg PUBLIC "-//W3C//DTD SVG 1.1//EN" "http://www.w3.org/Graphics/SVG/1.1/DTD/svg11.dtd"><svg t="1624779081527" class="icon" viewBox="0 0 1024 1024" version="1.1" xmlns="http://www.w3.org/2000/svg" p-id="1878" xmlns:xlink="http://www.w3.org/1999/xlink" width="32" height="32"><defs><style type="text/css"></style></defs><path d="M836.514909 272.384c-8.098909-15.127273-24.855273-21.271273-50.362182-18.432-25.506909 2.792727-42.728727 5.771636-51.758545 8.843636-12.241455 3.584-26.624 16.197818-43.194182 37.934546-16.570182 21.736727-67.118545 92.16-151.691636 211.176727-21.736727 21.736727-22.946909 42.542545-3.537455 62.370909 19.362909 19.874909 64 69.725091 133.957818 149.597091 18.897455 28.858182 40.401455 43.752727 64.465455 44.683636 24.110545 0.930909 54.132364 0.930909 90.065454 0 25.879273 9.867636 39.796364 25.227636 41.751273 46.033455 1.954909 20.805818 1.954909 38.725818 0 53.853091l-19.083636-29.789091c-16.570182-24.064-35.467636-32.116364-56.692364-24.064-31.930182 12.055273-111.290182 41.844364-112.733091 74.426182-0.930909 21.690182-0.930909 40.866909 0 57.390545h-7.773091l-40.401454-33.978182c-13.730909-14.661818-16.616727-36.398545-8.517818-65.256727 8.052364-28.811636 12.567273-44.683636 13.498181-47.476363 3.258182-12.753455-1.256727-26.437818-13.498181-41.099637-12.288-14.615273-48.872727-59.531636-109.847273-134.656-18.897455-21.271273-35.653818-24.343273-50.315637-9.216-14.661818 15.080727-91.229091 119.063273-229.655272 311.854546-0.930909 7.121455-6.190545 9.216-15.592728 6.376727-9.448727-2.839273-37.562182-17.501091-84.386909-43.938909-1.396364-4.747636 1.861818-11.589818 9.960728-20.573091 8.052364-8.983273 102.539636-116.922182 283.508363-323.909818 7.074909-17.454545 3.025455-32.814545-12.101818-46.08-15.080727-13.218909-80.756364-88.576-196.980364-226.071273-3.351273-8.517818-10.426182-13.265455-21.271272-14.196364-10.845091-0.930909-34.955636-2.327273-72.285091-4.235636-48.686545-17.454545-67.816727-49.803636-57.437091-97.093818 27.880727 40.587636 57.157818 57.623273 87.877818 51.013818 46.08-9.914182 76.567273-30.487273 97.140364-58.833455v-65.163636c49.570909 25.460364 69.399273 49.803636 59.485091 72.983273-14.894545 34.722909-45.986909 83.642182-23.319273 109.847273 15.127273 17.454545 70.144 85.038545 165.143273 202.705454 16.477091 10.891636 29.696 10.891636 39.656727 0 9.960727-10.891636 69.725091-82.711273 179.339636-215.505454 13.265455-27.834182 8.797091-53.341091-13.451636-76.520728-4.794182-18.897455-18.013091-28.392727-39.749818-28.392727-32.581818 0.046545-87.133091 2.187636-85.690182-17.687273 0.930909-13.172364 16.011636-34.676364 45.288727-64.465454l185.716364 90.018909a251.950545 251.950545 0 0 1 127.627636 109.847273c30.254545 51.479273 40.587636 84.573091 31.138909 99.188363-5.632 24.110545 4.747636 36.398545 31.185455 36.864 26.530909 0.465455 39.237818-19.595636 38.306909-60.229818-25.506909-94.021818-61.672727-155.927273-108.450909-185.716364-46.778182-29.742545-144.849455-80.989091-294.167273-153.786181-19.362909-5.725091-33.978182-3.351273-43.938909 7.074909-14.848 15.639273-114.129455 123.997091-72.983273 155.927272 41.099636 31.930182 45.986909 41.844364 105.565091 41.844364 39.703273 0 47.476364 10.146909 23.412364 30.440727l-124.741818 155.275637-8.471273-3.584-120.552727-144.570182c-4.235636-3.770182-1.861818-13.498182 7.121454-29.044364 13.498182-23.412364 45.381818-81.547636 3.584-126.184727-27.927273-29.789091-63.581091-56.459636-107.054545-80.104727-44.404364-13.218909-65.163636-1.396364-62.370909 35.467636 2.792727 36.817455 2.792727 62.370909 0 76.520727l-38.306909 22.016c-5.678545 6.144-11.589818 3.537455-17.687273-7.819636a1709.614545 1709.614545 0 0 0-41.797818-69.445818C73.402182 46.545455 58.042182 43.706182 43.380364 58.321455 21.410909 80.290909-28.951273 178.827636 22.109091 258.187636c34.024727 52.922182 83.409455 71.819636 148.107636 56.692364l186.461091 213.317818-298.449454 340.247273c-13.730909 21.736727-5.678545 43.287273 24.110545 64.512 29.789091 21.271273 68.514909 42.030545 116.224 62.370909 25.6 17.454545 47.802182 12.753455 66.653091-14.196364 18.897455-26.903273 92.16-124.276364 219.694545-291.979636l79.36 98.536727c0.930909 6.562909 0.930909 13.637818 0 21.224728-1.396364 11.357091-37.562182 108.450909 52.456728 172.218181 60.043636 42.542545 99.234909 53.434182 117.666909 32.628364 6.097455-8.052364 8.471273-18.897455 7.074909-32.581818-1.396364-13.730909-3.723636-38.306909-7.074909-73.728l60.229818-29.090909 52.503273 83.642182c23.086545 18.897455 40.820364 17.035636 53.108363-5.632 18.478545-34.024727 54.597818-150.993455 0-208.384-24.529455-26.996364-47.197091-40.680727-68.002909-41.146182h-90.763636l-15.732364-13.963637-128.279272-142.801454c-3.584-5.678545-2.839273-11.822545 2.280727-18.432 5.12-6.609455 53.806545-75.310545 146.013091-206.103273 7.074909-8.517818 25.739636-12.101818 55.994182-10.658909 25.041455 0.930909 38.074182-8.471273 39.00509-28.346182l-4.235636-14.149818z" fill="#1296db" p-id="1879"></path></svg>